<svg id="bold" enable-background="new 0 0 24 24" height="512" viewBox="0 0 24 24" width="512" xmlns="http://www.w3.org/2000/svg"><g><path d="m12 9c-1.654 0-3 1.346-3 3 0 1.302.839 2.402 2 2.816v8.184c0 .552.448 1 1 1s1-.448 1-1v-8.184c1.161-.414 2-1.514 2-2.816 0-1.654-1.346-3-3-3z"/><path d="m12-.037c-6.617 0-12 5.383-12 12 0 3.21 1.25 6.223 3.521 8.482.393.39 1.026.388 1.415-.003.39-.392.388-1.025-.003-1.415-1.892-1.881-2.933-4.389-2.933-7.064 0-5.514 4.486-10 10-10s10 4.486 10 10c0 2.674-1.041 5.183-2.932 7.064-.391.39-.393 1.023-.003 1.415.196.196.452.294.709.294.255 0 .51-.097.706-.291 2.27-2.259 3.52-5.271 3.52-8.482 0-6.616-5.383-12-12-12z"/><path d="m12 3.963c-4.411 0-8 3.589-8 8 0 2.14.835 4.148 2.352 5.653.392.388 1.024.386 1.415-.005.389-.392.386-1.025-.005-1.415-1.137-1.126-1.762-2.63-1.762-4.233 0-3.309 2.691-6 6-6s6 2.691 6 6c0 1.603-.625 3.106-1.761 4.233-.392.389-.394 1.022-.005 1.415.196.197.453.295.71.295.254 0 .509-.097.705-.29 1.516-1.505 2.351-3.512 2.351-5.653 0-4.411-3.589-8-8-8z"/></g></svg>