<?xml version="1.0" encoding="iso-8859-1"?>
<!-- Generator: Adobe Illustrator 19.0.0, SVG Export Plug-In . SVG Version: 6.00 Build 0)  -->
<svg version="1.1" id="Capa_1" xmlns="http://www.w3.org/2000/svg" xmlns:xlink="http://www.w3.org/1999/xlink" x="0px" y="0px"
	 viewBox="0 0 512 512" style="enable-background:new 0 0 512 512;" xml:space="preserve">
<path d="M0,112v288c0,8.832,7.168,16,16,16h48V96H16C7.168,96,0,103.168,0,112z"/>
<path d="M496,96h-48v320h48c8.832,0,16-7.168,16-16V112C512,103.168,504.832,96,496,96z"/>
<path d="M400,32H112c-8.832,0-16,7.168-16,16v416c0,8.832,7.168,16,16,16h288c8.832,0,16-7.168,16-16V48
	C416,39.168,408.832,32,400,32z M336,222.016c-8.832,0-16-7.168-16-16c0-21.376-17.504-33.6-32-40.032V336c0,26.912-28.096,48-64,48
	s-64-21.088-64-48s28.096-48,64-48c11.808,0,22.592,2.464,32,6.464V144c0-4.768,2.112-9.28,5.792-12.32s8.512-4.32,13.184-3.392
	C301.632,133.28,352,155.968,352,206.016C352,214.848,344.832,222.016,336,222.016z"/>
<g>
</g>
<g>
</g>
<g>
</g>
<g>
</g>
<g>
</g>
<g>
</g>
<g>
</g>
<g>
</g>
<g>
</g>
<g>
</g>
<g>
</g>
<g>
</g>
<g>
</g>
<g>
</g>
<g>
</g>
</svg>
