<?xml version="1.0" encoding="iso-8859-1"?>
<!-- Generator: Adobe Illustrator 19.0.0, SVG Export Plug-In . SVG Version: 6.00 Build 0)  -->
<svg version="1.1" id="Capa_1" xmlns="http://www.w3.org/2000/svg" xmlns:xlink="http://www.w3.org/1999/xlink" x="0px" y="0px"
	 viewBox="0 0 512 512" style="enable-background:new 0 0 512 512;" xml:space="preserve">
<circle cx="400" cy="368" r="16"/>
<path d="M496,256H16c-8.832,0-16,7.168-16,16v192c0,8.832,7.168,16,16,16h48v16c0,8.832,7.168,16,16,16s16-7.168,16-16v-16h320v16
	c0,8.832,7.168,16,16,16s16-7.168,16-16v-16h48c8.832,0,16-7.168,16-16V272C512,263.168,504.832,256,496,256z M272,352H80
	c-8.832,0-16-7.168-16-16s7.168-16,16-16h192c8.832,0,16,7.168,16,16S280.832,352,272,352z M400,416c-26.464,0-48-21.536-48-48
	s21.536-48,48-48s48,21.536,48,48S426.464,416,400,416z"/>
<path d="M220.448,224C212.8,215.488,208,204.352,208,192c0-26.496,21.504-48,48-48s48,21.504,48,48c0,12.352-4.8,23.488-12.448,32
	H445.12c1.76-10.432,2.88-21.088,2.88-32C448,85.952,362.048,0,256,0S64,85.952,64,192c0,10.912,1.12,21.568,2.88,32H220.448z"/>
<g>
</g>
<g>
</g>
<g>
</g>
<g>
</g>
<g>
</g>
<g>
</g>
<g>
</g>
<g>
</g>
<g>
</g>
<g>
</g>
<g>
</g>
<g>
</g>
<g>
</g>
<g>
</g>
<g>
</g>
</svg>
