<svg id="bold" enable-background="new 0 0 24 24" height="512" viewBox="0 0 24 24" width="512" xmlns="http://www.w3.org/2000/svg"><path d="m8.132 1.771c-.341-.234-.809-.146-1.042.197-.713 1.046-1.09 2.267-1.09 3.532s.377 2.486 1.09 3.532c.234.345.704.429 1.042.197.342-.233.431-.7.197-1.042-.542-.795-.829-1.725-.829-2.687s.287-1.892.83-2.688c.233-.341.145-.808-.198-1.041z"/><path d="m5.667 10.866c.34-.236.425-.703.189-1.043-.887-1.28-1.356-2.775-1.356-4.323s.469-3.043 1.356-4.323c.236-.34.151-.808-.189-1.043-.34-.236-.807-.152-1.043.189-1.062 1.531-1.624 3.322-1.624 5.177s.562 3.646 1.624 5.177c.235.339.702.426 1.043.189z"/><path d="m15.868 9.229c.338.232.807.147 1.042-.197.713-1.046 1.09-2.267 1.09-3.532s-.377-2.486-1.09-3.532c-.233-.343-.702-.431-1.042-.197-.342.233-.431.7-.197 1.042.542.795.829 1.725.829 2.687s-.287 1.892-.83 2.688c-.233.341-.145.808.198 1.041z"/><path d="m19.376 10.677c1.062-1.531 1.624-3.322 1.624-5.177s-.562-3.646-1.624-5.177c-.235-.34-.703-.424-1.043-.189-.34.236-.425.703-.189 1.043.887 1.28 1.356 2.775 1.356 4.323s-.469 3.043-1.356 4.323c-.236.34-.151.808.189 1.043.341.237.807.151 1.043-.189z"/><path d="m18.463 23.151c.375-.532.466-1.215.246-1.828l-5.033-13.98c.502-.458.824-1.111.824-1.843 0-1.378-1.122-2.5-2.5-2.5s-2.5 1.122-2.5 2.5c0 .732.322 1.385.824 1.842l-5.033 13.981c-.22.612-.128 1.295.246 1.828.374.532.985.849 1.636.849h9.654c.651 0 1.262-.317 1.636-.849zm-9.374-6.474 4.534 1.779-6.068 2.481zm1.901-1.402 2.831-1.625 1.147 3.186zm-.713-1.897 1.723-4.785 1.133 3.146zm-.037 8.622 5.742-2.347.845 2.347z"/></svg>