<?xml version="1.0" encoding="iso-8859-1"?>
<!-- Generator: Adobe Illustrator 19.0.0, SVG Export Plug-In . SVG Version: 6.00 Build 0)  -->
<svg version="1.1" id="Capa_1" xmlns="http://www.w3.org/2000/svg" xmlns:xlink="http://www.w3.org/1999/xlink" x="0px" y="0px"
	 viewBox="0 0 512 512" style="enable-background:new 0 0 512 512;" xml:space="preserve">
<g>
	<g>
		<path d="M115.352,406.869C61.109,363.647,30,299.107,30,229.799c0-69.306,31.107-133.845,85.348-177.067
			c6.479-5.163,7.545-14.601,2.382-21.079c-5.162-6.479-14.6-7.546-21.079-2.383C35.228,78.217,0,151.307,0,229.799
			c0,78.495,35.229,151.586,96.656,200.532c6.475,5.161,15.914,4.098,21.079-2.383C122.897,421.469,121.831,412.032,115.352,406.869
			z"/>
	</g>
</g>
<g>
	<g>
		<path d="M415.351,29.271c-6.48-5.162-15.916-4.096-21.079,2.383c-5.163,6.479-4.097,15.916,2.382,21.079
			C450.893,95.956,482,160.494,482,229.799c0,69.306-31.107,133.844-85.347,177.066c-6.479,5.163-7.545,14.601-2.382,21.079
			c5.165,6.482,14.604,7.542,21.079,2.383C476.772,381.38,512,308.29,512,229.799S476.772,78.218,415.351,29.271z"/>
	</g>
</g>
<g>
	<g>
		<path d="M165.335,344.257C130.169,316.286,110,274.567,110,229.799c0-44.769,20.169-86.488,55.336-114.46
			c6.483-5.157,7.559-14.593,2.401-21.077c-5.158-6.484-14.594-7.559-21.077-2.402C104.297,125.557,80,175.833,80,229.799
			c0,53.965,24.297,104.241,66.659,137.937c6.488,5.159,15.922,4.079,21.077-2.402C172.893,358.851,171.818,349.414,165.335,344.257
			z"/>
	</g>
</g>
<g>
	<g>
		<path d="M365.341,91.862c-6.484-5.156-15.919-4.082-21.077,2.402c-5.157,6.483-4.082,15.92,2.401,21.077
			C381.831,143.312,402,185.03,402,229.799c0,44.769-20.169,86.488-55.336,114.459c-6.483,5.157-7.559,14.593-2.401,21.077
			c5.16,6.487,14.598,7.556,21.077,2.402C407.703,334.04,432,283.764,432,229.799C432,175.834,407.703,125.558,365.341,91.862z"/>
	</g>
</g>
<g>
	<g>
		<path d="M256,155c-41.355,0-75,33.645-75,75c0,36.219,25.808,66.522,60,73.491V471c0,8.284,6.716,15,15,15s15-6.716,15-15V303.491
			c34.192-6.968,60-37.271,60-73.491C331,188.645,297.355,155,256,155z M256,275c-24.813,0-45-20.187-45-45s20.187-45,45-45
			s45,20.187,45,45S280.813,275,256,275z"/>
	</g>
</g>
<g>
</g>
<g>
</g>
<g>
</g>
<g>
</g>
<g>
</g>
<g>
</g>
<g>
</g>
<g>
</g>
<g>
</g>
<g>
</g>
<g>
</g>
<g>
</g>
<g>
</g>
<g>
</g>
<g>
</g>
</svg>
