<?xml version="1.0" encoding="iso-8859-1"?>
<!-- Generator: Adobe Illustrator 19.0.0, SVG Export Plug-In . SVG Version: 6.00 Build 0)  -->
<svg version="1.1" id="Capa_1" xmlns="http://www.w3.org/2000/svg" xmlns:xlink="http://www.w3.org/1999/xlink" x="0px" y="0px"
	 viewBox="0 0 480 480" style="enable-background:new 0 0 480 480;" xml:space="preserve">
<path d="M448,16H32C14.368,16,0,30.368,0,48v384c0,17.664,14.368,32,32,32h416c17.664,0,32-14.336,32-32V48
	C480,30.368,465.664,16,448,16z M96,304H64V176h32V304z M160,400h-32V80h32V400z M224,352h-32V128h32V352z M288,288h-32v-96h32V288z
	 M352,352h-32V128h32V352z M416,304h-32V176h32V304z"/>
<g>
</g>
<g>
</g>
<g>
</g>
<g>
</g>
<g>
</g>
<g>
</g>
<g>
</g>
<g>
</g>
<g>
</g>
<g>
</g>
<g>
</g>
<g>
</g>
<g>
</g>
<g>
</g>
<g>
</g>
</svg>
