<?xml version="1.0" encoding="iso-8859-1"?>
<!-- Generator: Adobe Illustrator 19.0.0, SVG Export Plug-In . SVG Version: 6.00 Build 0)  -->
<svg version="1.1" id="Capa_1" xmlns="http://www.w3.org/2000/svg" xmlns:xlink="http://www.w3.org/1999/xlink" x="0px" y="0px"
	 viewBox="0 0 512 512" style="enable-background:new 0 0 512 512;" xml:space="preserve">
<rect x="241" y="286" style="fill:#5A5A5A;" width="30" height="226"/>
<rect x="256" y="286" style="fill:#444444;" width="15" height="226"/>
<g>
	<path style="fill:#00ABE9;" d="M512,256c0,116.4-79.6,219.101-192.4,247.899l-7.2-29.099C411.7,449.299,482,358.599,482,256
		c0-124.2-101.8-226-226-226S30,131.8,30,256c0,102.599,70.3,193.299,169.6,218.8l-7.2,29.099C79.6,475.101,0,372.4,0,256
		C0,115.3,115.3,0,256,0S512,115.3,512,256z"/>
	<path style="fill:#00ABE9;" d="M452,256c0,82.5-53.2,157.301-130.901,184.9L310.9,412.7C376.901,389.299,422,325.6,422,256
		c0-90.901-75.099-166-166-166S90,165.099,90,256c0,69.6,45.099,133.299,111.099,156.7L190.9,440.9C113.2,413.301,60,338.5,60,256
		c0-107.401,88.599-196,196-196S452,148.599,452,256z"/>
	<path style="fill:#00ABE9;" d="M392,256c0,47.999-26.8,93.701-68.5,118.001l-15-26.1C340.901,329.001,362,293.2,362,256
		c0-57.9-48.1-106-106-106s-106,48.1-106,106c0,37.2,21.099,73.001,53.5,91.901l-15,26.1C146.8,349.701,120,303.999,120,256
		c0-74.399,61.601-136,136-136S392,181.601,392,256z"/>
	<path style="fill:#00ABE9;" d="M256,211c-24.901,0-45,20.099-45,45s20.099,45,45,45s45-20.099,45-45S280.901,211,256,211z"/>
</g>
<g>
	<path style="fill:#0095FF;" d="M301,256c0,24.901-20.099,45-45,45v-90C280.901,211,301,231.099,301,256z"/>
	<path style="fill:#0095FF;" d="M362,256c0-57.9-48.1-106-106-106v-30c74.399,0,136,61.601,136,136
		c0,47.999-26.8,93.701-68.5,118.001l-15-26.1C340.901,329.001,362,293.2,362,256z"/>
	<path style="fill:#0095FF;" d="M321.099,440.9L310.9,412.7C376.901,389.299,422,325.6,422,256c0-90.901-75.099-166-166-166V60
		c107.401,0,196,88.599,196,196C452,338.5,398.8,413.301,321.099,440.9z"/>
	<path style="fill:#0095FF;" d="M512,256c0,116.4-79.6,219.101-192.4,247.899l-7.2-29.099C411.7,449.299,482,358.599,482,256
		c0-124.2-101.8-226-226-226V0C396.7,0,512,115.3,512,256z"/>
</g>
<g>
</g>
<g>
</g>
<g>
</g>
<g>
</g>
<g>
</g>
<g>
</g>
<g>
</g>
<g>
</g>
<g>
</g>
<g>
</g>
<g>
</g>
<g>
</g>
<g>
</g>
<g>
</g>
<g>
</g>
</svg>
