<?xml version="1.0" encoding="UTF-8"?>
<svg xmlns="http://www.w3.org/2000/svg" xmlns:xlink="http://www.w3.org/1999/xlink" viewBox="0 0 512 512">
  <defs>
    <style>
      .cls-1 {
        fill: #0095ff;
      }

      .cls-1, .cls-2 {
        fill-rule: evenodd;
      }

      .cls-1, .cls-2, .cls-3, .cls-4, .cls-5 {
        stroke-width: 0px;
      }

      .cls-2 {
        fill: #00abe9;
      }

      .cls-6 {
        isolation: isolate;
      }

      .cls-3 {
        fill: #fff;
        filter: url(#drop-shadow-1);
      }

      .cls-4 {
        fill: #5a5a5a;
      }

      .cls-5 {
        fill: #444;
      }
    </style>
    <filter id="drop-shadow-1" filterUnits="userSpaceOnUse">
      <feOffset dx="0" dy="5"/>
      <feGaussianBlur result="blur" stdDeviation="5"/>
      <feFlood flood-color="#000" flood-opacity=".3"/>
      <feComposite in2="blur" operator="in"/>
      <feComposite in="SourceGraphic"/>
    </filter>
  </defs>
  <g id="BG" class="cls-6">
    <rect class="cls-3" x="50.28" y="50" width="411.72" height="411.72" rx="92" ry="92"/>
  </g>
  <g id="ICON">
    <g id="Rectangle_L" data-name="Rectangle L">
      <rect class="cls-4" x="246.71" y="256" width="9.29" height="158.5"/>
    </g>
    <g id="Rectangle_R" data-name="Rectangle R">
      <rect class="cls-5" x="256" y="256" width="9.29" height="158.5"/>
    </g>
    <g id="Ellipse_1_L" data-name="Ellipse 1 L">
      <path class="cls-2" d="m228.14,256c0,15.39,12.47,27.86,27.86,27.86v-55.72c-15.39,0-27.86,12.47-27.86,27.86Z"/>
    </g>
    <g id="Ellipse_1_R" data-name="Ellipse 1 R">
      <path class="cls-1" d="m256,228.14v55.72c15.39,0,27.86-12.47,27.86-27.86s-12.47-27.86-27.86-27.86Z"/>
    </g>
    <g id="Ellipse_2_L" data-name="Ellipse 2 L">
      <path class="cls-2" d="m256,190.37v-18.57c-46.5,0-84.2,37.7-84.2,84.2,0,31.32,17.11,58.65,42.48,73.16l9.44-16c-19.91-11.27-33.35-32.64-33.35-57.15,0-36.25,29.38-65.63,65.63-65.63Z"/>
    </g>
    <g id="Ellipse_2_R" data-name="Ellipse 2 R">
      <path class="cls-1" d="m256,171.8v18.57c36.25,0,65.63,29.38,65.63,65.63,0,24.51-13.44,45.88-33.35,57.15l9.44,16c25.38-14.5,42.48-41.83,42.48-73.16,0-46.5-37.7-84.2-84.2-84.2Z"/>
    </g>
    <g id="Ellipse_3_L" data-name="Ellipse 3 L">
      <path class="cls-2" d="m256,153.22v-18.57c-67.02,0-121.35,54.33-121.35,121.35,0,52.92,33.88,97.93,81.14,114.52l6.31-17.47c-40.1-14.01-68.87-52.16-68.87-97.05,0-56.76,46.02-102.78,102.78-102.78Z"/>
    </g>
    <g id="Ellipse_3_R" data-name="Ellipse 3 R">
      <path class="cls-1" d="m256,134.65v18.57c56.76,0,102.78,46.02,102.78,102.78,0,44.88-28.77,83.04-68.87,97.05l6.31,17.47c47.25-16.59,81.14-61.6,81.14-114.52,0-67.02-54.33-121.35-121.35-121.35Z"/>
    </g>
    <g id="Ellipse_4_L" data-name="Ellipse 4 L">
      <path class="cls-2" d="m116.07,256c0-77.28,62.65-139.93,139.93-139.93v-18.57c-87.54,0-158.5,70.96-158.5,158.5,0,73.96,50.66,136.1,119.18,153.58l4.7-17.98c-60.53-15.41-105.31-70.28-105.31-135.61Zm134.9,158.42c1.67.05,3.34.08,5.03.08s3.36-.03,5.03-.08h-10.05Z"/>
    </g>
    <g id="Ellipse_4_R" data-name="Ellipse 4 R">
      <path class="cls-1" d="m256,414.5c1.68,0,3.36-.03,5.03-.08h-10.05c1.67.05,3.34.08,5.03.08Zm0-317v18.57c77.28,0,139.93,62.65,139.93,139.93,0,65.33-44.77,120.2-105.31,135.61l4.7,17.98c68.52-17.49,119.18-79.62,119.18-153.58,0-87.54-70.96-158.5-158.5-158.5Z"/>
    </g>
  </g>
</svg>