<?xml version="1.0" encoding="UTF-8" standalone="no"?>
<svg
   xmlns:dc="http://purl.org/dc/elements/1.1/"
   xmlns:cc="http://creativecommons.org/ns#"
   xmlns:rdf="http://www.w3.org/1999/02/22-rdf-syntax-ns#"
   xmlns:svg="http://www.w3.org/2000/svg"
   xmlns="http://www.w3.org/2000/svg"
   xmlns:sodipodi="http://sodipodi.sourceforge.net/DTD/sodipodi-0.dtd"
   xmlns:inkscape="http://www.inkscape.org/namespaces/inkscape"
   id="bold"
   enable-background="new 0 0 24 24"
   height="512"
   viewBox="0 0 24 24"
   width="512"
   version="1.1"
   sodipodi:docname="StatusBarPlayMute.svg"
   inkscape:version="1.0.2 (e86c8708, 2021-01-15)">
  <metadata
     id="metadata369">
    <rdf:RDF>
      <cc:Work
         rdf:about="">
        <dc:format>image/svg+xml</dc:format>
        <dc:type
           rdf:resource="http://purl.org/dc/dcmitype/StillImage" />
        <dc:title></dc:title>
      </cc:Work>
    </rdf:RDF>
  </metadata>
  <defs
     id="defs28648" />
  <sodipodi:namedview
     id="namedview28646"
     pagecolor="#ffffff"
     bordercolor="#000000"
     borderopacity="0.25"
     inkscape:showpageshadow="2"
     inkscape:pageopacity="0.0"
     inkscape:pagecheckerboard="0"
     inkscape:deskcolor="#d1d1d1"
     showgrid="false"
     inkscape:zoom="1.23"
     inkscape:cx="181.29387"
     inkscape:cy="270.25584"
     inkscape:window-width="1920"
     inkscape:window-height="1078"
     inkscape:window-x="17"
     inkscape:window-y="146"
     inkscape:window-maximized="0"
     inkscape:current-layer="layer6"
     showguides="true"
     inkscape:document-rotation="0"
     inkscape:guide-bbox="true">
    <inkscape:grid
       type="xygrid"
       id="grid1273" />
    <sodipodi:guide
       position="11.999582,34.444564"
       orientation="1,0"
       id="guide1275" />
    <sodipodi:guide
       position="-6.3405452,11.999786"
       orientation="0,-1"
       id="guide1277" />
  </sodipodi:namedview>
  <g
     inkscape:groupmode="layer"
     id="layer4"
     inkscape:label="Play Right"
     style="display:inline" />
  <g
     inkscape:groupmode="layer"
     id="layer6"
     inkscape:label="Mute Left">
    <path
       d="m 4.8772771,8.3436107 c 0.010862,0.00445 1.7768448,0.9113062 1.7768448,0.9113062 1.5101184,-2.944239 5.1289441,-4.1124456 8.0687331,-2.6046964 1.424141,0.7304087 2.474211,1.9713602 2.95703,3.4956535 0.16672,0.526037 0.72816,0.816244 1.254836,0.649195 0.264448,-0.08464 0.468819,-0.268664 0.586105,-0.497317 0.115936,-0.22601 0.146112,-0.4970904 0.0641,-0.7594256 C 18.939698,7.5036841 17.5377,5.8462356 15.635588,4.8706851 11.716758,2.860806 6.8903104,4.418847 4.8772771,8.3436107 Z"
       id="path28896"
       inkscape:label="Small Circle Right"
       style="display:inline;stroke-width:0.999215"
       sodipodi:nodetypes="ccsccscsc"
       inkscape:transform-center-x="-0.0080071144"
       inkscape:transform-center-y="-0.14314313" />
    <path
       d="m 3.6415988,3.3912195 c 0.00884,-8.175e-4 1.3914157,1.432315 1.3914157,1.432315 3.9551053,-3.84196185 10.2937895,-3.7549672 14.1299215,0.1939247 1.860321,1.9150055 2.85916,4.4371761 2.811403,7.1018508 -0.0091,0.551735 0.429814,1.006459 0.982276,1.015453 0.276937,0.0037 0.528749,-0.104394 0.713094,-0.283448 0.182907,-0.177669 0.298329,-0.424816 0.303949,-0.700318 C 24.030289,8.9515341 22.831422,5.9235117 20.597503,3.6239298 15.994701,-1.1141678 8.3878685,-1.2192743 3.6415988,3.3912195 Z"
       id="path28844"
       inkscape:label="Big Circle Right"
       sodipodi:nodetypes="ccsccscsc"
       inkscape:transform-center-x="-1.8277442"
       inkscape:transform-center-y="-5.4017465"
       style="display:inline;stroke-width:0.999215" />
    <path
       d="m 23.361098,17.003848 -10.25,-5.765595 c -0.198715,-0.11152 -0.44075,-0.108787 -0.636785,0.0051 -0.197348,0.115347 -0.31775,0.325428 -0.31775,0.553498 v 11.531211 c 0,0.22796 0.12054,0.438181 0.31775,0.5535 0.10004,0.05767 0.211287,0.08719 0.322888,0.08719 0.107693,0 0.216481,-0.02691 0.313896,-0.082 l 10.250001,-5.765594 c 0.201173,-0.113978 0.326715,-0.326714 0.326715,-0.55861 0,-0.231786 -0.12546,-0.444604 -0.326715,-0.55861 z"
       id="path396"
       style="display:inline;stroke-width:0.0400389" />
    <path
       d="M 17.230423,5.9409927 C 13.889305,3.0611679 8.8311904,3.4322392 5.9557194,6.7681251 4.5606826,8.3865318 3.8841674,10.450261 4.0521322,12.578849 c 0.044,0.549357 0.5240032,0.960459 1.0750528,0.920035 0.5501888,-0.0425 0.96056,-0.523163 0.9186336,-1.073378 -0.1272,-1.59387 0.3798304,-3.1393413 1.4248064,-4.3516325 2.1570912,-2.5024816 5.949621,-2.7807075 8.456028,-0.6203477 0,0 1.304649,-1.5057346 1.30377,-1.5125331 z"
       id="path31512"
       inkscape:label="Small Circle"
       style="display:inline;stroke-width:0.999215"
       sodipodi:nodetypes="cscccscc"
       inkscape:transform-center-x="0.042702944"
       inkscape:transform-center-y="-0.10173004" />
    <path
       d="M 19.395054,2.5498882 C 14.185052,-1.5292848 6.6332253,-0.6159835 2.5602192,4.5858562 0.58434624,7.109342 -0.28605824,10.248546 0.11155296,13.424419 c 0.0693757,0.548864 0.5690096,0.937517 1.11596994,0.869945 0.5483632,-0.06774 0.936423,-0.566596 0.8686224,-1.114227 C 1.764273,10.535063 2.4883907,7.9216985 4.1349514,5.8187935 7.5290208,1.4840583 13.822443,0.72294544 18.16398,4.1221534 c 0,0 1.233805,-1.5570333 1.231074,-1.5722652 z"
       id="path31515"
       inkscape:label="Big Circle"
       style="display:inline;stroke-width:0.999215"
       sodipodi:nodetypes="cscscscc"
       inkscape:transform-center-x="0.071740327"
       inkscape:transform-center-y="-0.15138406" />
    <path
       fill="#ffffff"
       d="m 1.027648,17.30016 c 0.07072,-0.366655 0.496064,-0.799978 1.062976,-0.799978 0.566944,0 0.992128,0.366656 1.098432,0.733315 l 1.311008,4.099885 h 0.03552 l 1.275584,-4.066554 c 0.10624,-0.366655 0.566944,-0.733314 1.098432,-0.733314 0.566912,0 1.027552,0.433326 1.062976,0.799978 l 1.027584,5.766507 c 0,0.06665 0,0.133341 0,0.166652 0,0.466652 -0.354336,0.733314 -0.77952,0.733314 -0.566912,0 -0.77952,-0.23337 -0.8504,-0.733314 L 6.732448,19.066778 H 6.696928 L 5.38592,23.399992 c -0.07072,0.233369 -0.28352,0.599983 -0.885824,0.599983 -0.602368,0 -0.814944,-0.366658 -0.885824,-0.599983 L 2.303232,19.066778 H 2.267712 L 1.62992,23.266662 C 1.5592,23.766648 1.3464,23.999976 0.77952,23.999976 0.354336,23.999976 0,23.699984 0,23.266662 c 0,-0.06662 0,-0.1 0,-0.166652 z"
       id="path494"
       style="display:inline;fill:#000000;fill-opacity:1;stroke-width:34.3669"
       inkscape:label="M" />
  </g>
</svg>
