<?xml version="1.0" ?><svg xmlns:inkscape="http://www.inkscape.org/namespaces/inkscape" xmlns:sodipodi="http://sodipodi.sourceforge.net/DTD/sodipodi-0.dtd" xmlns="http://www.w3.org/2000/svg" xmlns:svg="http://www.w3.org/2000/svg" id="bold" enable-background="new 0 0 24 24" height="16" viewBox="0 0 0.75 0.75" width="16" version="1.1" sodipodi:docname="source.svg" inkscape:version="1.3.2 (091e20e, 2023-11-25)">
  <defs id="defs28648"/>
  <sodipodi:namedview id="namedview28646" pagecolor="#ffffff" bordercolor="#000000" borderopacity="0.25" inkscape:showpageshadow="2" inkscape:pageopacity="0.0" inkscape:pagecheckerboard="0" inkscape:deskcolor="#d1d1d1" showgrid="false" inkscape:zoom="22.627417" inkscape:cx="11.335806" inkscape:cy="9.4354561" inkscape:window-width="1536" inkscape:window-height="1212" inkscape:window-x="0" inkscape:window-y="25" inkscape:window-maximized="1" inkscape:current-layer="layer4" showguides="false"/>
  
  
  
  <g inkscape:groupmode="layer" id="layer4" inkscape:label="Play Right" style="display:inline">
    <path d="m 0.14169685,0.28461081 c 3.5214e-4,1.029e-4 0.0581993,0.022519 0.0581993,0.022519 0.037315,-0.0964388 0.14596775,-0.14456721 0.2422581,-0.10730976 0.0466465,0.018049 0.083335,0.0531872 0.10331985,0.0989846 0.0069,0.0158045 0.0252968,0.02299 0.0411195,0.0160778 0.007943,-0.003494 0.0136926,-0.009881 0.016591,-0.0173709 0.002864,-0.007403 0.002917,-0.0159267 -4.8823e-4,-0.0238122 -0.0267,-0.0611283 -0.0756866,-0.10806157 -0.13798871,-0.13216807 -0.12835805,-0.04966545 -0.2732688,0.0145236 -0.32301081,0.14307953 z" id="path28896" inkscape:label="Small Circle Right" style="display:inline;stroke-width:0.0312259" sodipodi:nodetypes="ccsccscsc" inkscape:transform-center-x="0.0014433938" inkscape:transform-center-y="-0.1538044"/>
    <path d="m 0.10814376,0.1115447 c 2.7528e-4,-3.124e-5 0.0444097,0.0438408 0.0444097,0.0438408 0.12105526,-0.12262638 0.31915264,-0.12405617 0.44159025,-0.003187 0.0593758,0.058615 0.0922336,0.13676417 0.0924855,0.22005051 7.609e-5,0.0172443 0.0140875,0.0311647 0.0313541,0.031084 0.008654,-6.239e-5 0.0164515,-0.003608 0.0220938,-0.009322 0.005598,-0.005672 0.009042,-0.0134681 0.009038,-0.0220796 C 0.7487905,0.27192898 0.70935198,0.17810606 0.63805221,0.10771974 0.49114479,-0.03730503 0.25341453,-0.03561125 0.10814376,0.1115447 Z" id="path28844" inkscape:label="Big Circle Right" sodipodi:nodetypes="ccsccscsc" inkscape:transform-center-x="-0.053629443" inkscape:transform-center-y="-0.17328784" style="stroke-width:0.0312259"/>
    <path d="M 0.73937511,0.5334084 0.40604178,0.3541125 C 0.39957956,0.3506445 0.39170844,0.3507295 0.38533333,0.35427187 0.37891556,0.35785887 0.375,0.36439189 0.375,0.37148429 V 0.730076 c 0,0.007089 0.00392,0.0136264 0.0103333,0.0172125 0.003253,0.001794 0.006871,0.002711 0.0105005,0.002711 0.003502,0 0.00704,-8.3666e-4 0.010208,-0.00255 L 0.73937511,0.5681541 C 0.74591733,0.5646096 0.75,0.55799405 0.75,0.55078265 0.75,0.54357465 0.74592,0.53695655 0.7393751,0.5334112 Z" id="path396" style="display:inline;stroke-width:0.00127328"/>
  </g>
  <g inkscape:groupmode="layer" id="layer6" inkscape:label="Mute Left">
    <path d="m 0.53845073,0.18564125 c -0.10440996,-0.089997 -0.26247603,-0.0784007 -0.3523345,0.0258486 -0.0435949,0.0505766 -0.064736,0.11506991 -0.0594871,0.1815901 0.001375,0.0171679 0.0163751,0.0300152 0.0335954,0.0287519 0.0171934,-0.001328 0.0300175,-0.0163493 0.0287073,-0.033544 -0.003975,-0.0498098 0.0118697,-0.0981071 0.0445252,-0.13599224 0.0674091,-0.0782047 0.18592565,-0.0868995 0.26425087,-0.0193864 0,0 0.0407703,-0.0470555 0.0407428,-0.047268 z" id="path31512" inkscape:label="Small Circle" style="display:inline;stroke-width:0.0312259" sodipodi:nodetypes="cscccscc" inkscape:transform-center-x="0.042702944" inkscape:transform-center-y="-0.10173004"/>
    <path d="M 0.60609543,0.07966632 C 0.44328286,-0.04781134 0.20728829,-0.01926989 0.08000685,0.14329207 0.01826082,0.22215317 -0.00893932,0.32025598 0.00348603,0.41950477 0.00565402,0.43665724 0.02126758,0.44880296 0.03836009,0.44669129 0.05549644,0.44457432 0.06762331,0.42898468 0.06550454,0.41187074 0.05513353,0.3292099 0.07776221,0.24754001 0.12921723,0.18182242 0.2352819,0.04635822 0.43195135,0.02257279 0.56762438,0.12880096 c 0,0 0.0385564,-0.04865863 0.038471,-0.04913464 z" id="path31515" inkscape:label="Big Circle" style="display:inline;stroke-width:0.0312259" sodipodi:nodetypes="cscscscc" inkscape:transform-center-x="0.071740327" inkscape:transform-center-y="-0.15138406"/>
    <path fill="#ffffff" d="m 0.032114,0.540625 c 0.00221,-0.0114583 0.015502,-0.025 0.033218,-0.025 0.017717,0 0.031004,0.0114583 0.034326,0.0229167 l 0.040969,0.12812496 h 0.00111 L 0.181599,0.53958335 c 0.00332,-0.0114583 0.017717,-0.0229167 0.034326,-0.0229167 0.017716,0 0.032111,0.0135418 0.033218,0.025 l 0.032112,0.1802083 c 0,0.002083 0,0.004167 0,0.005208 0,0.0145833 -0.011073,0.0229167 -0.02436,0.0229167 -0.017716,0 -0.02436,-0.007293 -0.026575,-0.0229167 L 0.210389,0.59583332 H 0.209279 L 0.16831,0.73124998 c -0.00221,0.007293 -0.00886,0.01875 -0.027682,0.01875 -0.018824,-2e-8 -0.025467,-0.0114584 -0.027682,-0.01875 L 0.071976,0.59583332 H 0.070866 L 0.050935,0.7270833 C 0.048725,0.7427083 0.042075,0.75 0.02436,0.75 0.011073,0.75000001 0,0.740625 0,0.7270833 0,0.7250013 0,0.7239583 0,0.7218753 Z" id="path494" style="display:inline;fill:#000000;fill-opacity:1;stroke-width:1.07398" inkscape:label="M"/>
  </g>
  
</svg>