<?xml version="1.0" ?><svg xmlns:inkscape="http://www.inkscape.org/namespaces/inkscape" xmlns:sodipodi="http://sodipodi.sourceforge.net/DTD/sodipodi-0.dtd" xmlns="http://www.w3.org/2000/svg" xmlns:svg="http://www.w3.org/2000/svg" id="bold" enable-background="new 0 0 24 24" height="16" viewBox="0 0 0.75 0.75" width="16" version="1.1" sodipodi:docname="source.svg" inkscape:version="1.3.2 (091e20e, 2023-11-25)">
  <defs id="defs28648"/>
  <sodipodi:namedview id="namedview28646" pagecolor="#ffffff" bordercolor="#000000" borderopacity="0.25" inkscape:showpageshadow="2" inkscape:pageopacity="0.0" inkscape:pagecheckerboard="0" inkscape:deskcolor="#d1d1d1" showgrid="false" inkscape:zoom="22.627417" inkscape:cx="11.335806" inkscape:cy="9.4354561" inkscape:window-width="1536" inkscape:window-height="1212" inkscape:window-x="0" inkscape:window-y="25" inkscape:window-maximized="1" inkscape:current-layer="layer4" showguides="false"/>
  
  <g inkscape:groupmode="layer" id="layer8" inkscape:label="Stick">
    <path d="m 12,9 c -1.654,0 -3,1.346 -3,3 0,1.302 0.839,2.402 2,2.816 V 23 c 0,0.552 0.448,1 1,1 0.552,0 1,-0.448 1,-1 V 14.816 C 14.161,14.402 15,13.302 15,12 15,10.346 13.654,9 12,9 Z" id="path31589" inkscape:label="Stick" style="display:inline" transform="matrix(0.03125,0,0,0.0312019,0,0.00115447)"/>
  </g>
  <g inkscape:groupmode="layer" id="layer5" inkscape:label="Unmute Left" style="display:inline">
    <path d="m 12,-0.037 c -6.617,0 -12,5.383 -12,12 0,3.21 1.25,6.223 3.521,8.482 0.393,0.39 1.026,0.388 1.415,-0.003 C 5.326,20.05 5.324,19.417 4.933,19.027 3.041,17.146 2,14.638 2,11.963 c 0,-5.514 4.486,-10 10,-10 0,0 0.01154,-1.98967375 0,-2 z" id="path30822" inkscape:label="Big Circle" style="display:inline" transform="matrix(0.03125,0,0,0.0312019,0,0.00115447)" sodipodi:nodetypes="cscscscc"/>
    <path d="m 12,3.963 c -4.411,0 -8,3.589 -8,8 0,2.14 0.835,4.148 2.352,5.653 0.392,0.388 1.024,0.386 1.415,-0.005 C 8.156,17.219 8.153,16.586 7.762,16.196 6.625,15.07 6,13.566 6,11.963 c 0,-3.309 2.691,-6 6,-6 0,0 0.0051,-1.995418 0,-2 z" id="path30819" inkscape:label="Small Circle" style="display:inline" transform="matrix(0.03125,0,0,0.0312019,0,0.00115447)" sodipodi:nodetypes="cscccscc"/>
  </g>
  
  
  <g inkscape:groupmode="layer" id="layer7" inkscape:label="Pause Right">
    <path d="m 12,-0.037 c 0,0 0.0041,1.9963998 0,2 5.514,0 10,4.486 10,10 0,2.674 -1.041,5.183 -2.932,7.064 -0.391,0.39 -0.393,1.023 -0.003,1.415 0.196,0.196 0.452,0.294 0.709,0.294 0.255,0 0.51,-0.097 0.706,-0.291 2.27,-2.259 3.52,-5.271 3.52,-8.482 0,-6.616 -5.383,-12 -12,-12 z" id="path31560" inkscape:label="Big Circle" style="display:inline" transform="matrix(0.03125,0,0,0.0312019,0,0.00115447)" sodipodi:nodetypes="ccsccscsc"/>
    <path d="m 12,3.963 c 0.01287,0.00484 0,2 0,2 3.309,0 6,2.691 6,6 0,1.603 -0.625,3.106 -1.761,4.233 -0.392,0.389 -0.394,1.022 -0.005,1.415 0.196,0.197 0.453,0.295 0.71,0.295 0.254,0 0.509,-0.097 0.705,-0.29 C 19.165,16.111 20,14.104 20,11.963 c 0,-4.411 -3.589,-8 -8,-8 z" id="path31563" inkscape:label="Small Circle" style="display:inline" transform="matrix(0.03125,0,0,0.0312019,0,0.00115447)" sodipodi:nodetypes="ccsccscsc"/>
  </g>
</svg>