<?xml version="1.0" encoding="UTF-8" standalone="no"?>
<svg
   id="bold"
   enable-background="new 0 0 24 24"
   height="16"
   viewBox="0 0 0.75 0.75"
   width="16"
   version="1.1"
   sodipodi:docname="source.svg"
   inkscape:version="1.2.2 (b0a84865, 2022-12-01)"
   xmlns:inkscape="http://www.inkscape.org/namespaces/inkscape"
   xmlns:sodipodi="http://sodipodi.sourceforge.net/DTD/sodipodi-0.dtd"
   xmlns="http://www.w3.org/2000/svg"
   xmlns:svg="http://www.w3.org/2000/svg">
  <defs
     id="defs28648" />
  <sodipodi:namedview
     id="namedview28646"
     pagecolor="#ffffff"
     bordercolor="#000000"
     borderopacity="0.25"
     inkscape:showpageshadow="2"
     inkscape:pageopacity="0.0"
     inkscape:pagecheckerboard="0"
     inkscape:deskcolor="#d1d1d1"
     showgrid="false"
     inkscape:zoom="22.627417"
     inkscape:cx="-38.161669"
     inkscape:cy="20.086252"
     inkscape:window-width="3440"
     inkscape:window-height="1309"
     inkscape:window-x="0"
     inkscape:window-y="79"
     inkscape:window-maximized="0"
     inkscape:current-layer="layer5"
     showguides="false" />
  <g
     inkscape:groupmode="layer"
     id="layer3"
     inkscape:label="Pause"
     style="display:none">
    <g
       id="g28781"
       transform="matrix(0.03125,0,0,0.0312019,0,0.00115447)">
      <path
         d="m 12,9 c -1.654,0 -3,1.346 -3,3 0,1.302 0.839,2.402 2,2.816 V 23 c 0,0.552 0.448,1 1,1 0.552,0 1,-0.448 1,-1 V 14.816 C 14.161,14.402 15,13.302 15,12 15,10.346 13.654,9 12,9 Z"
         id="path28637"
         inkscape:label="Stick" />
      <path
         d="m 12,3.963 c -4.411,0 -8,3.589 -8,8 0,2.14 0.835,4.148 2.352,5.653 0.392,0.388 1.024,0.386 1.415,-0.005 C 8.156,17.219 8.153,16.586 7.762,16.196 6.625,15.07 6,13.566 6,11.963 c 0,-3.309 2.691,-6 6,-6 3.309,0 6,2.691 6,6 0,1.603 -0.625,3.106 -1.761,4.233 -0.392,0.389 -0.394,1.022 -0.005,1.415 0.196,0.197 0.453,0.295 0.71,0.295 0.254,0 0.509,-0.097 0.705,-0.29 C 19.165,16.111 20,14.104 20,11.963 c 0,-4.411 -3.589,-8 -8,-8 z"
         id="path28641"
         inkscape:label="Small Circle" />
      <path
         d="m 12,-0.037 c -6.617,0 -12,5.383 -12,12 0,3.21 1.25,6.223 3.521,8.482 0.393,0.39 1.026,0.388 1.415,-0.003 C 5.326,20.05 5.324,19.417 4.933,19.027 3.041,17.146 2,14.638 2,11.963 c 0,-5.514 4.486,-10 10,-10 5.514,0 10,4.486 10,10 0,2.674 -1.041,5.183 -2.932,7.064 -0.391,0.39 -0.393,1.023 -0.003,1.415 0.196,0.196 0.452,0.294 0.709,0.294 0.255,0 0.51,-0.097 0.706,-0.291 2.27,-2.259 3.52,-5.271 3.52,-8.482 0,-6.616 -5.383,-12 -12,-12 z"
         id="path28639"
         inkscape:label="Big Circle"
         style="display:inline" />
    </g>
  </g>
  <g
     inkscape:groupmode="layer"
     id="layer8"
     inkscape:label="Stick"
     style="display:inline">
    <path
       d="m 12,9 c -1.654,0 -3,1.346 -3,3 0,1.302 0.839,2.402 2,2.816 V 23 c 0,0.552 0.448,1 1,1 0.552,0 1,-0.448 1,-1 V 14.816 C 14.161,14.402 15,13.302 15,12 15,10.346 13.654,9 12,9 Z"
       id="path31589"
       inkscape:label="Stick"
       style="display:inline"
       transform="matrix(0.03125,0,0,0.0312019,0,0.00115447)" />
  </g>
  <g
     inkscape:groupmode="layer"
     id="layer5"
     inkscape:label="Unmute Left"
     style="display:inline">
    <path
       d="m 12,-0.037 c -6.617,0 -12,5.383 -12,12 0,3.21 1.25,6.223 3.521,8.482 0.393,0.39 1.026,0.388 1.415,-0.003 C 5.326,20.05 5.324,19.417 4.933,19.027 3.041,17.146 2,14.638 2,11.963 c 0,-5.514 4.486,-10 10,-10 0,0 0.01154,-1.98967375 0,-2 z"
       id="path30822"
       inkscape:label="Big Circle"
       style="display:inline"
       transform="matrix(0.03125,0,0,0.0312019,0,0.00115447)"
       sodipodi:nodetypes="cscscscc" />
    <path
       d="m 12,3.963 c -4.411,0 -8,3.589 -8,8 0,2.14 0.835,4.148 2.352,5.653 0.392,0.388 1.024,0.386 1.415,-0.005 C 8.156,17.219 8.153,16.586 7.762,16.196 6.625,15.07 6,13.566 6,11.963 c 0,-3.309 2.691,-6 6,-6 0,0 0.0051,-1.995418 0,-2 z"
       id="path30819"
       inkscape:label="Small Circle"
       style="display:inline"
       transform="matrix(0.03125,0,0,0.0312019,0,0.00115447)"
       sodipodi:nodetypes="cscccscc" />
  </g>
  <g
     inkscape:groupmode="layer"
     id="layer4"
     inkscape:label="Play Right"
     style="display:none">
    <path
       d="m 0.15241491,0.26072513 c 3.3945e-4,1.3913e-4 0.0555264,0.0284791 0.0555264,0.0284791 0.0471912,-0.09201 0.1602795,-0.12851746 0.25214791,-0.081399 0.0445044,0.0228259 0.0773191,0.0616067 0.0924072,0.10924219 0.00521,0.0164391 0.022755,0.0255083 0.0392136,0.0202879 0.008264,-0.002645 0.0146506,-0.008396 0.0183158,-0.0155416 0.003623,-0.007063 0.004566,-0.0155345 0.002003,-0.0237327 C 0.59186555,0.2344767 0.54805314,0.18268001 0.48861213,0.15219322 0.36614868,0.08938277 0.2153222,0.13807289 0.15241491,0.26072513 Z"
       id="path28896"
       inkscape:label="Small Circle Right"
       style="display:inline;stroke-width:0.0312259"
       sodipodi:nodetypes="ccsccscsc"
       inkscape:transform-center-x="-0.0080071144"
       inkscape:transform-center-y="-0.14314313" />
    <path
       d="m 0.13815566,0.08426524 c 2.7705e-4,-1.31e-6 0.0394152,0.04838053 0.0394152,0.04838053 0.13359075,-0.10883524 0.33068388,-0.0888623 0.4393516,0.0445228 0.0526981,0.0646848 0.0769236,0.14592539 0.0681793,0.22875181 -0.001787,0.0171517 0.0106394,0.0325037 0.0278136,0.0342884 0.008611,8.7264e-4 0.0167449,-0.00181 0.0229714,-0.006882 0.006178,-0.005033 0.0104444,-0.0124128 0.0113697,-0.0209744 C 0.75773354,0.31290113 0.72865868,0.21536757 0.66537757,0.13769262 0.53499207,-0.02235017 0.2984694,-0.046341 0.13815566,0.08426524 Z"
       id="path28844"
       inkscape:label="Big Circle Right"
       sodipodi:nodetypes="ccsccscsc"
       inkscape:transform-center-x="-0.068753099"
       inkscape:transform-center-y="-0.15476717"
       style="stroke-width:0.0312259" />
    <path
       d="M 0.72479671,0.54615081 0.4476818,0.37740109 c -0.005369,-0.003263 -0.011916,-0.003188 -0.0172158,1.5e-4 -0.005335,0.003375 -0.008591,0.009525 -0.008591,0.0162 v 0.33749943 c 0,0.006675 0.003256,0.012825 0.008591,0.0162 0.002702,0.001688 0.005716,0.00255 0.008729,0.00255 0.00291,0 0.005854,-7.8733e-4 0.008486,-0.0024 L 0.72479661,0.57885076 c 0.005436,-0.003338 0.008834,-0.009563 0.008834,-0.01635 0,-0.006787 -0.003398,-0.0130125 -0.008834,-0.01635 z"
       id="path396"
       style="display:inline;stroke-width:0.00112628"
       inkscape:label="Play" />
  </g>
  <g
     inkscape:groupmode="layer"
     id="layer6"
     inkscape:label="Mute Left"
     style="display:none">
    <path
       d="m 0.53845073,0.18564125 c -0.10440996,-0.089997 -0.26247603,-0.0784007 -0.3523345,0.0258486 -0.0435949,0.0505766 -0.064736,0.11506991 -0.0594871,0.1815901 0.001375,0.0171679 0.0163751,0.0300152 0.0335954,0.0287519 0.0171934,-0.001328 0.0300175,-0.0163493 0.0287073,-0.033544 -0.003975,-0.0498098 0.0118697,-0.0981071 0.0445252,-0.13599224 0.0674091,-0.0782047 0.18592565,-0.0868995 0.26425087,-0.0193864 0,0 0.0407703,-0.0470555 0.0407428,-0.047268 z"
       id="path31512"
       inkscape:label="Small Circle"
       style="display:inline;stroke-width:0.0312259"
       sodipodi:nodetypes="cscccscc"
       inkscape:transform-center-x="0.042702944"
       inkscape:transform-center-y="-0.10173004" />
    <path
       d="M 0.60609543,0.07966632 C 0.44328286,-0.04781134 0.20728829,-0.01926989 0.08000685,0.14329207 0.01826082,0.22215317 -0.00893932,0.32025598 0.00348603,0.41950477 0.00565402,0.43665724 0.02126758,0.44880296 0.03836009,0.44669129 0.05549644,0.44457432 0.06762331,0.42898468 0.06550454,0.41187074 0.05513353,0.3292099 0.07776221,0.24754001 0.12921723,0.18182242 0.2352819,0.04635822 0.43195135,0.02257279 0.56762438,0.12880096 c 0,0 0.0385564,-0.04865863 0.038471,-0.04913464 z"
       id="path31515"
       inkscape:label="Big Circle"
       style="display:inline;stroke-width:0.0312259"
       sodipodi:nodetypes="cscscscc"
       inkscape:transform-center-x="0.071740327"
       inkscape:transform-center-y="-0.15138406" />
    <path
       fill="#ffffff"
       d="m 0.032114,0.540625 c 0.00221,-0.0114583 0.015502,-0.025 0.033218,-0.025 0.017717,0 0.031004,0.0114583 0.034326,0.0229167 l 0.040969,0.12812496 h 0.00111 L 0.181599,0.53958335 c 0.00332,-0.0114583 0.017717,-0.0229167 0.034326,-0.0229167 0.017716,0 0.032111,0.0135418 0.033218,0.025 l 0.032112,0.1802083 c 0,0.002083 0,0.004167 0,0.005208 0,0.0145833 -0.011073,0.0229167 -0.02436,0.0229167 -0.017716,0 -0.02436,-0.007293 -0.026575,-0.0229167 L 0.210389,0.59583332 H 0.209279 L 0.16831,0.73124998 c -0.00221,0.007293 -0.00886,0.01875 -0.027682,0.01875 -0.018824,-2e-8 -0.025467,-0.0114584 -0.027682,-0.01875 L 0.071976,0.59583332 H 0.070866 L 0.050935,0.7270833 C 0.048725,0.7427083 0.042075,0.75 0.02436,0.75 0.011073,0.75000001 0,0.740625 0,0.7270833 0,0.7250013 0,0.7239583 0,0.7218753 Z"
       id="path494"
       style="display:inline;fill:#000000;fill-opacity:1;stroke-width:1.07398"
       inkscape:label="M" />
  </g>
  <g
     inkscape:groupmode="layer"
     id="layer7"
     inkscape:label="Pause Right"
     style="display:inline">
    <path
       d="m 12,-0.037 c 0,0 0.0041,1.9963998 0,2 5.514,0 10,4.486 10,10 0,2.674 -1.041,5.183 -2.932,7.064 -0.391,0.39 -0.393,1.023 -0.003,1.415 0.196,0.196 0.452,0.294 0.709,0.294 0.255,0 0.51,-0.097 0.706,-0.291 2.27,-2.259 3.52,-5.271 3.52,-8.482 0,-6.616 -5.383,-12 -12,-12 z"
       id="path31560"
       inkscape:label="Big Circle"
       style="display:inline"
       transform="matrix(0.03125,0,0,0.0312019,0,0.00115447)"
       sodipodi:nodetypes="ccsccscsc" />
    <path
       d="m 12,3.963 c 0.01287,0.00484 0,2 0,2 3.309,0 6,2.691 6,6 0,1.603 -0.625,3.106 -1.761,4.233 -0.392,0.389 -0.394,1.022 -0.005,1.415 0.196,0.197 0.453,0.295 0.71,0.295 0.254,0 0.509,-0.097 0.705,-0.29 C 19.165,16.111 20,14.104 20,11.963 c 0,-4.411 -3.589,-8 -8,-8 z"
       id="path31563"
       inkscape:label="Small Circle"
       style="display:inline"
       transform="matrix(0.03125,0,0,0.0312019,0,0.00115447)"
       sodipodi:nodetypes="ccsccscsc" />
  </g>
</svg>
