<?xml version="1.0" ?><svg xmlns:inkscape="http://www.inkscape.org/namespaces/inkscape" xmlns:sodipodi="http://sodipodi.sourceforge.net/DTD/sodipodi-0.dtd" xmlns="http://www.w3.org/2000/svg" xmlns:svg="http://www.w3.org/2000/svg" id="bold" enable-background="new 0 0 24 24" height="16" viewBox="0 0 0.75 0.75" width="16" version="1.1" sodipodi:docname="source.svg" inkscape:version="1.2.2 (b0a84865, 2022-12-01)">
  <defs id="defs28648"/>
  <sodipodi:namedview id="namedview28646" pagecolor="#ffffff" bordercolor="#000000" borderopacity="0.25" inkscape:showpageshadow="2" inkscape:pageopacity="0.0" inkscape:pagecheckerboard="0" inkscape:deskcolor="#d1d1d1" showgrid="false" inkscape:zoom="22.627417" inkscape:cx="-38.161669" inkscape:cy="20.086252" inkscape:window-width="3440" inkscape:window-height="1309" inkscape:window-x="47" inkscape:window-y="64" inkscape:window-maximized="0" inkscape:current-layer="layer4" showguides="false"/>
  
  
  <g inkscape:groupmode="layer" id="layer5" inkscape:label="Unmute Left" style="display:inline">
    <path d="m 12,-0.037 c -6.617,0 -12,5.383 -12,12 0,3.21 1.25,6.223 3.521,8.482 0.393,0.39 1.026,0.388 1.415,-0.003 C 5.326,20.05 5.324,19.417 4.933,19.027 3.041,17.146 2,14.638 2,11.963 c 0,-5.514 4.486,-10 10,-10 0,0 0.01154,-1.98967375 0,-2 z" id="path30822" inkscape:label="Big Circle" style="display:inline" transform="matrix(0.03125,0,0,0.0312019,0,0.00115447)" sodipodi:nodetypes="cscscscc"/>
    <path d="m 12,3.963 c -4.411,0 -8,3.589 -8,8 0,2.14 0.835,4.148 2.352,5.653 0.392,0.388 1.024,0.386 1.415,-0.005 C 8.156,17.219 8.153,16.586 7.762,16.196 6.625,15.07 6,13.566 6,11.963 c 0,-3.309 2.691,-6 6,-6 0,0 0.0051,-1.995418 0,-2 z" id="path30819" inkscape:label="Small Circle" style="display:inline" transform="matrix(0.03125,0,0,0.0312019,0,0.00115447)" sodipodi:nodetypes="cscccscc"/>
  </g>
  <g inkscape:groupmode="layer" id="layer4" inkscape:label="Play Right" style="display:inline">
    <path d="m 0.15241491,0.26072513 c 3.3945e-4,1.3913e-4 0.0555264,0.0284791 0.0555264,0.0284791 0.0471912,-0.09201 0.1602795,-0.12851746 0.25214791,-0.081399 0.0445044,0.0228259 0.0773191,0.0616067 0.0924072,0.10924219 0.00521,0.0164391 0.022755,0.0255083 0.0392136,0.0202879 0.008264,-0.002645 0.0146506,-0.008396 0.0183158,-0.0155416 0.003623,-0.007063 0.004566,-0.0155345 0.002003,-0.0237327 C 0.59186555,0.2344767 0.54805314,0.18268001 0.48861213,0.15219322 0.36614868,0.08938277 0.2153222,0.13807289 0.15241491,0.26072513 Z" id="path28896" inkscape:label="Small Circle Right" style="display:inline;stroke-width:0.0312259" sodipodi:nodetypes="ccsccscsc" inkscape:transform-center-x="-0.0080071144" inkscape:transform-center-y="-0.14314313"/>
    <path d="m 0.13815566,0.08426524 c 2.7705e-4,-1.31e-6 0.0394152,0.04838053 0.0394152,0.04838053 0.13359075,-0.10883524 0.33068388,-0.0888623 0.4393516,0.0445228 0.0526981,0.0646848 0.0769236,0.14592539 0.0681793,0.22875181 -0.001787,0.0171517 0.0106394,0.0325037 0.0278136,0.0342884 0.008611,8.7264e-4 0.0167449,-0.00181 0.0229714,-0.006882 0.006178,-0.005033 0.0104444,-0.0124128 0.0113697,-0.0209744 C 0.75773354,0.31290113 0.72865868,0.21536757 0.66537757,0.13769262 0.53499207,-0.02235017 0.2984694,-0.046341 0.13815566,0.08426524 Z" id="path28844" inkscape:label="Big Circle Right" sodipodi:nodetypes="ccsccscsc" inkscape:transform-center-x="-0.068753099" inkscape:transform-center-y="-0.15476717" style="stroke-width:0.0312259"/>
    <path d="M 0.738047,0.4951864 0.363047,0.28425 C 0.355777,0.28017 0.346922,0.28027 0.33975,0.2844375 0.33253,0.2886575 0.328125,0.2963434 0.328125,0.3046874 v 0.4218727 c 0,0.00834 0.00441,0.016031 0.011625,0.02025 0.00366,0.00211 0.00773,0.00319 0.011813,0.00319 0.00394,0 0.00792,-9.843e-4 0.011484,-0.003 l 0.375,-0.2109364 C 0.745407,0.5318937 0.75,0.5241107 0.75,0.5156267 c 0,-0.00848 -0.00459,-0.016266 -0.011953,-0.020437 z" id="path396" style="display:inline;stroke-width:0.00146484"/>
  </g>
  
  
</svg>