<?xml version="1.0" encoding="UTF-8" standalone="no"?>
<svg
   xmlns:dc="http://purl.org/dc/elements/1.1/"
   xmlns:cc="http://creativecommons.org/ns#"
   xmlns:rdf="http://www.w3.org/1999/02/22-rdf-syntax-ns#"
   xmlns:svg="http://www.w3.org/2000/svg"
   xmlns="http://www.w3.org/2000/svg"
   xmlns:sodipodi="http://sodipodi.sourceforge.net/DTD/sodipodi-0.dtd"
   xmlns:inkscape="http://www.inkscape.org/namespaces/inkscape"
   id="bold"
   enable-background="new 0 0 24 24"
   height="512"
   viewBox="0 0 24 24"
   width="512"
   version="1.1"
   sodipodi:docname="signal-play7.svg"
   inkscape:version="1.0.2 (e86c8708, 2021-01-15)">
  <metadata
     id="metadata294">
    <rdf:RDF>
      <cc:Work
         rdf:about="">
        <dc:format>image/svg+xml</dc:format>
        <dc:type
           rdf:resource="http://purl.org/dc/dcmitype/StillImage" />
        <dc:title></dc:title>
      </cc:Work>
    </rdf:RDF>
  </metadata>
  <defs
     id="defs292" />
  <sodipodi:namedview
     pagecolor="#ffffff"
     bordercolor="#666666"
     borderopacity="1"
     objecttolerance="10"
     gridtolerance="10"
     guidetolerance="10"
     inkscape:pageopacity="0"
     inkscape:pageshadow="2"
     inkscape:window-width="1920"
     inkscape:window-height="1084"
     id="namedview290"
     showgrid="false"
     inkscape:zoom="1.10803"
     inkscape:cx="329.63095"
     inkscape:cy="408.0661"
     inkscape:window-x="0"
     inkscape:window-y="25"
     inkscape:window-maximized="1"
     inkscape:current-layer="bold"
     inkscape:document-rotation="0" />
  <g
     id="g287"
     inkscape:export-xdpi="3"
     inkscape:export-ydpi="3">
    <path
       d="m 12,-0.037 c -6.617,0 -12,5.383 -12,12 0,3.21 1.25,6.223 3.521,8.482 0.393,0.39 1.026,0.388 1.415,-0.003 C 5.326,20.05 5.324,19.417 4.933,19.027 3.041,17.146 2,14.638 2,11.963 c 0,-5.514 4.486,-10 10,-10 z"
       id="path283"
       style="display:inline"
       sodipodi:nodetypes="cscscscc" />
    <path
       d="m 3.5091941,3.4719446 1.4142136,1.4142135 c 3.8989868,-3.89898675 10.2431493,-3.89898675 14.1421363,3e-7 1.890804,1.8908035 2.928836,4.4010326 2.921765,7.0682396 -7.07e-4,0.55225 0.445478,1.001263 0.998435,1.002677 0.277186,0 0.527502,-0.111723 0.709228,-0.293449 0.180312,-0.180312 0.292035,-0.429214 0.29345,-0.704986 0.0078,-3.2024862 -1.238144,-6.2161753 -3.508664,-8.4866952 -4.678219,-4.6782187 -12.2916383,-4.6789258 -16.9705639,-2e-7 z"
       id="path283-1"
       style="display:inline"
       sodipodi:nodetypes="ccsccscsc" />
    <path
       d="m 12,3.963 c -4.411,0 -8,3.589 -8,8 0,2.14 0.835,4.148 2.352,5.653 0.392,0.388 1.024,0.386 1.415,-0.005 C 8.156,17.219 8.153,16.586 7.762,16.196 6.625,15.07 6,13.566 6,11.963 c 0,-3.309 2.691,-6 6,-6 z"
       id="path285"
       style="display:inline"
       sodipodi:nodetypes="cscccscc" />
    <path
       d="m 4.6089601,8.901566 1.84776,0.765346 c 1.266301,-3.057119 4.7822609,-4.513477 7.8393779,-3.247177 1.480979,0.613442 2.630393,1.766039 3.236877,3.246851 0.209397,0.511016 0.793427,0.755111 1.305376,0.546117 C 19.095361,10.107011 19.28425,9.907077 19.3826,9.669641 19.4798,9.434975 19.487771,9.162265 19.3845,8.907328 18.574229,6.930779 17.039524,5.391303 15.061498,4.571976 10.986265,2.883959 6.2970101,4.826313 4.6089941,8.901546 Z"
       id="path285-8-4"
       style="display:inline"
       sodipodi:nodetypes="ccsccscccc" />
  </g>
  <path
     d="m 18.352362,16.38016 -2.135743,-1.201356 c -0.04138,-0.02323 -0.09184,-0.02269 -0.132682,0.0011 -0.04111,0.02403 -0.06621,0.06781 -0.06621,0.115331 v 2.402709 c 0,0.04752 0.0251,0.0913 0.06621,0.115331 0.02083,0.01202 0.04405,0.01815 0.06728,0.01815 0.02242,0 0.04512,-0.0056 0.06541,-0.01709 l 2.135742,-1.201355 c 0.04191,-0.02376 0.06808,-0.06808 0.06808,-0.116398 0,-0.04831 -0.02616,-0.09264 -0.06808,-0.116398 z"
     id="path396"
     style="display:inline;stroke-width:0.00834278" />
</svg>
