<?xml version="1.0" encoding="UTF-8" standalone="no"?>
<svg
   id="bold"
   enable-background="new 0 0 24 24"
   height="16"
   viewBox="0 0 0.75 0.75"
   width="16"
   version="1.1"
   sodipodi:docname="ConnectingMuted-5.svg"
   inkscape:version="1.2.2 (b0a84865, 2022-12-01)"
   xmlns:inkscape="http://www.inkscape.org/namespaces/inkscape"
   xmlns:sodipodi="http://sodipodi.sourceforge.net/DTD/sodipodi-0.dtd"
   xmlns="http://www.w3.org/2000/svg"
   xmlns:svg="http://www.w3.org/2000/svg"
   xmlns:rdf="http://www.w3.org/1999/02/22-rdf-syntax-ns#"
   xmlns:cc="http://creativecommons.org/ns#"
   xmlns:dc="http://purl.org/dc/elements/1.1/">
  <metadata
     id="metadata294">
    <rdf:RDF>
      <cc:Work
         rdf:about="">
        <dc:format>image/svg+xml</dc:format>
        <dc:type
           rdf:resource="http://purl.org/dc/dcmitype/StillImage" />
      </cc:Work>
    </rdf:RDF>
  </metadata>
  <defs
     id="defs292" />
  <sodipodi:namedview
     pagecolor="#ffffff"
     bordercolor="#666666"
     borderopacity="1"
     objecttolerance="10"
     gridtolerance="10"
     guidetolerance="10"
     inkscape:pageopacity="0"
     inkscape:pageshadow="2"
     inkscape:window-width="2283"
     inkscape:window-height="1309"
     id="namedview290"
     showgrid="false"
     inkscape:zoom="64"
     inkscape:cx="0.4609375"
     inkscape:cy="8.4921875"
     inkscape:window-x="1"
     inkscape:window-y="25"
     inkscape:window-maximized="0"
     inkscape:current-layer="bold"
     inkscape:document-rotation="0"
     inkscape:showpageshadow="2"
     inkscape:pagecheckerboard="0"
     inkscape:deskcolor="#d1d1d1"
     showguides="true">
    <sodipodi:guide
       position="16.923856,5.6103569"
       orientation="1,0"
       id="guide403"
       inkscape:locked="false" />
    <sodipodi:guide
       position="20.595802,7.5173756"
       orientation="0,-1"
       id="guide405"
       inkscape:locked="false" />
  </sodipodi:namedview>
  <path
     d="M 0.37518048,0 C 0.16829971,0 0,0.16829971 0,0.37518048 c 0,0.10036078 0.0390813,0.19456235 0.11008421,0.26519007 0.0122872,0.0121934 0.0320779,0.0121308 0.04424,-9.379e-5 0.0121934,-0.0122559 0.0121308,-0.0320467 -9.38e-5,-0.04424 C 0.09507699,0.53722719 0.06253008,0.45881447 0.06253008,0.37518048 c 0,-0.17239543 0.14025497,-0.3126504 0.3126504,-0.3126504 z"
     id="path283"
     style="display:inline;stroke-width:0.031265"
     sodipodi:nodetypes="cscscscc" />
  <path
     d="m 0.01244344,0.27909399 c 0.05299084,-0.19997906 0.25878455,-0.31955553 0.45876361,-0.2665647 0.0970127,0.02570661 0.17806123,0.0876131 0.22814593,0.17433802 0.008639,0.0150005 0.003509,0.0341149 -0.0114226,0.0427401 -0.0149703,0.008647 -0.0340848,0.003517 -0.0427401,-0.0114227 C 0.6034945,0.14594141 0.53603435,0.09439552 0.45519046,0.07297335 0.28854628,0.02881565 0.11704515,0.12846642 0.07288746,0.2951106 Z"
     id="path283-1"
     style="display:inline;stroke-width:0.031265"
     sodipodi:nodetypes="cscscscc"
     inkscape:transform-center-x="0.017097607"
     inkscape:transform-center-y="-0.22736721" />
  <path
     d="m 0.37518048,0.12506016 c -0.13791009,0 -0.25012032,0.11221023 -0.25012032,0.25012032 0,0.0669072 0.0261063,0.12968739 0.0735354,0.17674127 0.0122559,0.0121308 0.0320154,0.0120683 0.04424,-1.5632e-4 0.0121621,-0.0122559 0.0120683,-0.0320467 -1.5633e-4,-0.04424 -0.0355483,-0.0352044 -0.055089,-0.0822271 -0.055089,-0.13234492 0,-0.10345601 0.0841342,-0.18759024 0.18759024,-0.18759024 z"
     id="path285"
     style="display:inline;stroke-width:0.031265"
     sodipodi:nodetypes="cscccscc" />
  <path
     d="m 0.1250625,0.3751828 c 0,-0.13791008 0.11221024,-0.2501203 0.25012035,-0.2501203 0.0669072,0 0.12968736,0.0261063 0.17674124,0.0735354 0.0121308,0.0122559 0.0120683,0.0320154 -1.5631e-4,0.04424 -0.0122559,0.0121621 -0.0320467,0.0120683 -0.04424,-1.5632e-4 -0.0352044,-0.0355483 -0.0822271,-0.055089 -0.13234491,-0.055089 -0.103456,0 -0.18759025,0.0841342 -0.18759025,0.18759022 z"
     id="path285-0"
     style="display:inline;stroke-width:0.031265"
     sodipodi:nodetypes="cscccscc" />
  <path
     d="m 0.5390625,0.48210938 c -0.0314096,0 -0.0569531,0.0255435 -0.0569531,0.0569531 0,0.0314096 0.0255435,0.0569531 0.0569531,0.0569531 0.0314096,0 0.0569531,-0.0255434 0.0569531,-0.0569531 0,-0.0314096 -0.0255434,-0.0569531 -0.0569531,-0.0569531 z m 0.0227812,0.0928194 a 0.00590889,0.00590889 0 0 1 -0.005894,0.005894 c -0.00104,0 -0.002065,-2.8485e-4 -0.002976,-8.256e-4 A 0.00183674,0.00183674 0 0 1 0.55264646,0.5797552 l -0.025159,-0.0233936 a 0.00209303,0.00209303 0 0 0 -9.114e-4,-2.1357e-4 h -0.0158046 a 0.00589465,0.00589465 0 0 1 -0.005881,-0.005894 v -0.0242763 a 0.00589465,0.00589465 0 0 1 0.005894,-0.005894 h 0.0158045 c 3.1321e-4,0 6.27e-4,-7.119e-5 9.114e-4,-2.1357e-4 l 0.0251306,-0.0234077 c 9.967e-5,-9.967e-5 2.1358e-4,-1.851e-4 3.2724e-4,-2.4205e-4 a 0.00589465,0.00589465 0 0 1 0.00299,-8.256e-4 0.00590889,0.00590889 0 0 1 0.005894,0.005894 z"
     id="path4577"
     style="stroke-width:0.0142383" />
</svg>
