<?xml version="1.0" ?><svg xmlns:inkscape="http://www.inkscape.org/namespaces/inkscape" xmlns:sodipodi="http://sodipodi.sourceforge.net/DTD/sodipodi-0.dtd" xmlns="http://www.w3.org/2000/svg" xmlns:svg="http://www.w3.org/2000/svg" id="bold" enable-background="new 0 0 24 24" height="16" viewBox="0 0 0.75 0.75" width="16" version="1.1" sodipodi:docname="source.svg" inkscape:version="1.3.2 (091e20e, 2023-11-25)">
  <defs id="defs28648"/>
  <sodipodi:namedview id="namedview28646" pagecolor="#ffffff" bordercolor="#000000" borderopacity="0.25" inkscape:showpageshadow="2" inkscape:pageopacity="0.0" inkscape:pagecheckerboard="0" inkscape:deskcolor="#d1d1d1" showgrid="false" inkscape:zoom="22.627417" inkscape:cx="11.335806" inkscape:cy="9.4354561" inkscape:window-width="1536" inkscape:window-height="1212" inkscape:window-x="0" inkscape:window-y="25" inkscape:window-maximized="1" inkscape:current-layer="layer4" showguides="false"/>
  
  <g inkscape:groupmode="layer" id="layer8" inkscape:label="Stick">
    <path d="m 12,9 c -1.654,0 -3,1.346 -3,3 0,1.302 0.839,2.402 2,2.816 V 23 c 0,0.552 0.448,1 1,1 0.552,0 1,-0.448 1,-1 V 14.816 C 14.161,14.402 15,13.302 15,12 15,10.346 13.654,9 12,9 Z" id="path31589" inkscape:label="Stick" style="display:inline" transform="matrix(0.03125,0,0,0.0312019,0,0.00115447)"/>
  </g>
  
  
  <g inkscape:groupmode="layer" id="layer6" inkscape:label="Mute Left">
    <path d="m 0.53845073,0.18564125 c -0.10440996,-0.089997 -0.26247603,-0.0784007 -0.3523345,0.0258486 -0.0435949,0.0505766 -0.064736,0.11506991 -0.0594871,0.1815901 0.001375,0.0171679 0.0163751,0.0300152 0.0335954,0.0287519 0.0171934,-0.001328 0.0300175,-0.0163493 0.0287073,-0.033544 -0.003975,-0.0498098 0.0118697,-0.0981071 0.0445252,-0.13599224 0.0674091,-0.0782047 0.18592565,-0.0868995 0.26425087,-0.0193864 0,0 0.0407703,-0.0470555 0.0407428,-0.047268 z" id="path31512" inkscape:label="Small Circle" style="display:inline;stroke-width:0.0312259" sodipodi:nodetypes="cscccscc" inkscape:transform-center-x="0.042702944" inkscape:transform-center-y="-0.10173004"/>
    <path d="M 0.60609543,0.07966632 C 0.44328286,-0.04781134 0.20728829,-0.01926989 0.08000685,0.14329207 0.01826082,0.22215317 -0.00893932,0.32025598 0.00348603,0.41950477 0.00565402,0.43665724 0.02126758,0.44880296 0.03836009,0.44669129 0.05549644,0.44457432 0.06762331,0.42898468 0.06550454,0.41187074 0.05513353,0.3292099 0.07776221,0.24754001 0.12921723,0.18182242 0.2352819,0.04635822 0.43195135,0.02257279 0.56762438,0.12880096 c 0,0 0.0385564,-0.04865863 0.038471,-0.04913464 z" id="path31515" inkscape:label="Big Circle" style="display:inline;stroke-width:0.0312259" sodipodi:nodetypes="cscscscc" inkscape:transform-center-x="0.071740327" inkscape:transform-center-y="-0.15138406"/>
    <path fill="#ffffff" d="m 0.032114,0.540625 c 0.00221,-0.0114583 0.015502,-0.025 0.033218,-0.025 0.017717,0 0.031004,0.0114583 0.034326,0.0229167 l 0.040969,0.12812496 h 0.00111 L 0.181599,0.53958335 c 0.00332,-0.0114583 0.017717,-0.0229167 0.034326,-0.0229167 0.017716,0 0.032111,0.0135418 0.033218,0.025 l 0.032112,0.1802083 c 0,0.002083 0,0.004167 0,0.005208 0,0.0145833 -0.011073,0.0229167 -0.02436,0.0229167 -0.017716,0 -0.02436,-0.007293 -0.026575,-0.0229167 L 0.210389,0.59583332 H 0.209279 L 0.16831,0.73124998 c -0.00221,0.007293 -0.00886,0.01875 -0.027682,0.01875 -0.018824,-2e-8 -0.025467,-0.0114584 -0.027682,-0.01875 L 0.071976,0.59583332 H 0.070866 L 0.050935,0.7270833 C 0.048725,0.7427083 0.042075,0.75 0.02436,0.75 0.011073,0.75000001 0,0.740625 0,0.7270833 0,0.7250013 0,0.7239583 0,0.7218753 Z" id="path494" style="display:inline;fill:#000000;fill-opacity:1;stroke-width:1.07398" inkscape:label="M"/>
  </g>
  <g inkscape:groupmode="layer" id="layer7" inkscape:label="Pause Right">
    <path d="m 12,-0.037 c 0,0 0.0041,1.9963998 0,2 5.514,0 10,4.486 10,10 0,2.674 -1.041,5.183 -2.932,7.064 -0.391,0.39 -0.393,1.023 -0.003,1.415 0.196,0.196 0.452,0.294 0.709,0.294 0.255,0 0.51,-0.097 0.706,-0.291 2.27,-2.259 3.52,-5.271 3.52,-8.482 0,-6.616 -5.383,-12 -12,-12 z" id="path31560" inkscape:label="Big Circle" style="display:inline" transform="matrix(0.03125,0,0,0.0312019,0,0.00115447)" sodipodi:nodetypes="ccsccscsc"/>
    <path d="m 12,3.963 c 0.01287,0.00484 0,2 0,2 3.309,0 6,2.691 6,6 0,1.603 -0.625,3.106 -1.761,4.233 -0.392,0.389 -0.394,1.022 -0.005,1.415 0.196,0.197 0.453,0.295 0.71,0.295 0.254,0 0.509,-0.097 0.705,-0.29 C 19.165,16.111 20,14.104 20,11.963 c 0,-4.411 -3.589,-8 -8,-8 z" id="path31563" inkscape:label="Small Circle" style="display:inline" transform="matrix(0.03125,0,0,0.0312019,0,0.00115447)" sodipodi:nodetypes="ccsccscsc"/>
  </g>
</svg>